<?xml version="1.0" standalone="no"?>
<!DOCTYPE svg PUBLIC "-//W3C//DTD SVG 20010904//EN"
 "http://www.w3.org/TR/2001/REC-SVG-20010904/DTD/svg10.dtd">
<svg version="1.0" xmlns="http://www.w3.org/2000/svg"
 width="1280.000000pt" height="1262.000000pt" viewBox="0 0 1280.000000 1262.000000"
 preserveAspectRatio="xMidYMid meet">
<metadata>
Created by potrace 1.15, written by Peter Selinger 2001-2017
</metadata>
<g transform="translate(0.000000,1262.000000) scale(0.100000,-0.100000)"
fill="#000000" stroke="none">
<path d="M5435 12614 c-658 -52 -1254 -274 -1820 -679 -170 -122 -304 -234
-560 -469 -379 -348 -582 -523 -854 -735 -678 -528 -1195 -773 -1544 -730
-106 13 -167 38 -283 115 -148 98 -168 107 -231 102 -62 -5 -100 -29 -126 -79
-41 -77 4 -183 125 -294 237 -217 624 -316 993 -256 516 85 1008 323 1630 791
99 74 324 250 500 389 570 453 827 639 1095 789 465 260 838 346 1290 297 322
-34 600 -113 891 -253 113 -55 303 -166 387 -227 l54 -38 -159 -52 c-879 -288
-1625 -860 -2140 -1640 -193 -293 -341 -597 -454 -935 -91 -274 -140 -482
-180 -772 -27 -197 -37 -614 -20 -820 11 -128 40 -353 56 -433 6 -25 -1 -40
-44 -96 -255 -337 -391 -741 -391 -1159 0 -409 125 -794 366 -1131 73 -102
241 -279 343 -361 239 -193 542 -335 831 -388 63 -12 124 -24 135 -26 13 -2
40 -38 75 -96 64 -108 391 -603 512 -775 153 -219 348 -472 477 -622 l56 -64
-35 6 c-140 26 -220 31 -450 32 -278 0 -392 -14 -585 -70 -255 -74 -516 -214
-546 -292 -20 -53 41 -114 94 -94 14 6 45 25 69 44 25 18 85 54 134 79 275
142 630 206 995 179 143 -11 426 -53 478 -72 14 -5 64 -50 111 -99 64 -68 80
-90 65 -90 -54 0 -249 -22 -320 -36 -313 -63 -658 -235 -965 -481 -110 -87
-315 -291 -325 -321 -16 -52 43 -114 93 -98 11 4 58 45 104 92 319 328 741
575 1119 655 112 23 301 35 420 25 85 -7 87 -8 149 -59 l63 -52 -110 -6 c-332
-20 -589 -194 -787 -535 -105 -181 -215 -495 -233 -666 -5 -51 -3 -59 20 -82
30 -30 66 -33 97 -8 16 13 29 48 50 142 44 193 92 326 172 484 190 369 482
549 825 507 138 -17 251 -53 433 -140 201 -96 329 -138 480 -157 63 -9 135
-22 160 -30 66 -21 110 -17 176 15 32 16 106 44 164 62 57 18 147 54 200 80
85 41 98 45 115 33 31 -23 67 -16 176 30 421 181 732 145 990 -113 93 -94 153
-179 223 -319 55 -110 137 -352 162 -477 25 -127 72 -166 138 -114 31 24 33
54 11 161 -87 413 -289 776 -535 958 -77 57 -206 121 -295 145 -116 31 -304
31 -475 -1 l-35 -7 54 41 c55 42 107 61 241 90 111 23 416 23 535 -1 383 -77
776 -301 1115 -634 63 -62 125 -116 138 -119 28 -8 70 19 82 52 16 40 -5 73
-118 184 -342 336 -758 576 -1143 659 -174 37 -447 49 -544 24 -12 -3 8 24 51
67 66 67 75 73 153 95 127 37 291 72 451 96 188 28 511 31 670 5 263 -42 511
-134 661 -247 68 -51 93 -57 127 -32 39 29 49 69 25 102 -77 104 -411 256
-678 310 -302 61 -729 51 -1052 -24 -35 -8 -69 -15 -75 -15 -5 0 17 30 49 68
284 323 649 838 930 1312 44 74 91 153 104 175 24 40 24 40 94 43 162 7 403
76 605 173 873 421 1295 1414 990 2329 -90 272 -239 520 -432 721 l-73 76 6
129 c9 188 -11 586 -36 714 -3 14 -12 88 -20 165 -9 77 -27 204 -40 283 -273
1580 -1477 2869 -3040 3252 -209 51 -399 82 -650 105 l-69 7 -98 93 c-351 334
-879 650 -1388 831 -387 138 -746 203 -1145 209 -126 1 -252 1 -280 -1z"/>
</g>
</svg>
